<svg xmlns="http://www.w3.org/2000/svg" xmlns:xlink="http://www.w3.org/1999/xlink" viewBox="0 0 284.84 284.84"><defs><style>.cls-1{fill:url(#Безымянный_градиент_4);}.cls-2{fill:url(#Безымянный_градиент_2);}.cls-3{fill:none;stroke-width:4px;stroke-dasharray:12;}.cls-3,.cls-4{stroke:#000;stroke-miterlimit:10;}.cls-4{stroke-width:0.25px;}</style><linearGradient id="Безымянный_градиент_4" x1="53.55" y1="192.7" x2="209.18" y2="123.8" gradientUnits="userSpaceOnUse"><stop offset="0" stop-color="#ffe131"/><stop offset="1" stop-color="#ffb900"/></linearGradient><linearGradient id="Безымянный_градиент_2" x1="59.19" y1="190.78" x2="188.48" y2="132.72" gradientUnits="userSpaceOnUse"><stop offset="0" stop-color="#ffde41"/><stop offset="1" stop-color="#ffb900"/></linearGradient></defs><title>gps-smart</title><g id="Слой_1" data-name="Слой 1"><path class="cls-1" d="M196.85,27.33h-93.7a21,21,0,0,0-21,21V251.64a21,21,0,0,0,21,21h93.7a21,21,0,0,0,21-21V48.36A21,21,0,0,0,196.85,27.33ZM135,36.14a2.1,2.1,0,0,1,2.09-2.09h26.37a2.09,2.09,0,0,1,2.09,2.09v.54a2.08,2.08,0,0,1-2.09,2.08H137.1A2.09,2.09,0,0,1,135,36.68Zm68.46,215.59a2.72,2.72,0,0,1-2.72,2.72H99.25a2.72,2.72,0,0,1-2.72-2.72V48.21a2.72,2.72,0,0,1,2.72-2.73h101.5a2.72,2.72,0,0,1,2.72,2.73Z" transform="translate(-7.58 -7.58)"/></g><g id="Слой_8" data-name="Слой 8"><path class="cls-2" d="M150,7.58A142.42,142.42,0,1,0,292.42,150,142.42,142.42,0,0,0,150,7.58Zm70.27,247.65A21.77,21.77,0,0,1,198.51,277h-97a21.77,21.77,0,0,1-21.76-21.77V44.77A21.77,21.77,0,0,1,101.49,23h97a21.77,21.77,0,0,1,21.76,21.77Z" transform="translate(-7.58 -7.58)"/></g><g id="Слой_4" data-name="Слой 4"><path class="cls-3" d="M119,237.94c18.83-8.47,40.29-21.35,41-38.1.9-21.75-33.91-34.55-30.08-51.11,4.28-18.55,52-20.33,51.79-31.72-.18-7.89-23.17-10.44-23.79-20.82-.56-9.32,17.45-16,16.11-19.57-.72-1.92-6.88-2.88-34.7,3.47" transform="translate(-7.58 -7.58)"/></g><g id="Слой_5" data-name="Слой 5"><path class="cls-4" d="M116.84,207.73a8.35,8.35,0,0,0-7.65,11.33l7.08,19.39c2.64-6.25,8.13-19.19,8.21-19.39a8.1,8.1,0,0,0,.56-3A8.27,8.27,0,0,0,116.84,207.73Zm0,13.6a5.27,5.27,0,1,1,5.27-5.27A5.26,5.26,0,0,1,116.84,221.33Z" transform="translate(-7.58 -7.58)"/><circle class="cls-4" cx="109.25" cy="208.36" r="2.51"/></g><g id="Слой_6" data-name="Слой 6"><path class="cls-4" d="M138.29,48.41a8.26,8.26,0,0,0-8.2,8.32,8.49,8.49,0,0,0,.54,3q3.54,9.69,7.09,19.4c2.64-6.25,8.12-19.2,8.21-19.4a8.32,8.32,0,0,0-7.64-11.32Zm0,13.6a5.27,5.27,0,1,1,5.27-5.27A5.27,5.27,0,0,1,138.29,62Z" transform="translate(-7.58 -7.58)"/><circle class="cls-4" cx="130.7" cy="49.03" r="2.51"/></g></svg>