<svg xmlns="http://www.w3.org/2000/svg" xmlns:xlink="http://www.w3.org/1999/xlink" viewBox="0 0 284.84 284.84"><defs><style>.cls-1{fill:url(#Безымянный_градиент_4);}.cls-2{fill:url(#Безымянный_градиент_4-2);}</style><linearGradient id="Безымянный_градиент_4" x1="59.19" y1="190.78" x2="188.48" y2="132.72" gradientUnits="userSpaceOnUse"><stop offset="0" stop-color="#ffde41"/><stop offset="1" stop-color="#ffb900"/></linearGradient><linearGradient id="Безымянный_градиент_4-2" x1="106.76" y1="145.48" x2="184.25" y2="145.48" xlink:href="#Безымянный_градиент_4"/></defs><title>Helm</title><g id="Слой_2" data-name="Слой 2"><path class="cls-1" d="M150,7.58A142.42,142.42,0,1,0,292.42,150,142.42,142.42,0,0,0,150,7.58ZM152.23,186H76.57a8.7,8.7,0,0,1,1.08-17c5.16-31.26,30.11-55,60.11-55,30.83,0,56.32,25,60.5,57.54l23.79,7.65a17.63,17.63,0,0,1,5.6,4A17.14,17.14,0,0,1,229.8,186Z" transform="translate(-7.58 -7.58)"/></g><g id="Слой_4" data-name="Слой 4"><path class="cls-2" d="M184.25,166.25c-11.26-19-33-35.45-57.86-35.31a58.46,58.46,0,0,0-19.63,3.56,63.76,63.76,0,0,1,8.58-4.55c5.47-2.37,18.83-7.93,34.46-3.68,13.35,3.64,27,14.11,31.93,27.88C183.27,158.49,183.52,162,184.25,166.25Z" transform="translate(-7.58 -7.58)"/></g></svg>