<svg xmlns="http://www.w3.org/2000/svg" xmlns:xlink="http://www.w3.org/1999/xlink" viewBox="0 0 267.17 267.17"><defs><style>.cls-1{fill:url(#Безымянный_градиент_10);}.cls-2{fill:none;stroke:#000;stroke-miterlimit:10;stroke-width:5px;}.cls-3{fill:#a5a268;}</style><linearGradient id="Безымянный_градиент_10" x1="47.18" y1="187.99" x2="187.31" y2="136.89" gradientUnits="userSpaceOnUse"><stop offset="0" stop-color="#ffdf45"/><stop offset="0.23" stop-color="#ffdd41"/><stop offset="0.48" stop-color="#ffd634"/><stop offset="0.74" stop-color="#ffca1e"/><stop offset="1" stop-color="#ffb901"/><stop offset="1" stop-color="#ffb900"/></linearGradient></defs><title>Безымянный-1</title><g id="Слой_5" data-name="Слой 5"><path class="cls-1" d="M150,16.91A133.59,133.59,0,1,0,283.59,150.5,133.59,133.59,0,0,0,150,16.91Zm-70.16,87a155.29,155.29,0,0,1,32.71,1.34c12.59,1.87,19,4.46,22.07,5.82a71,71,0,0,1,13,7.55V197.4a57.6,57.6,0,0,0-13-7.94c-6-2.65-11.71-3.91-22.07-5a250.88,250.88,0,0,0-32.91-1.21Q79.74,143.59,79.84,103.91Zm-16,104.27V117.32H72v74.93c4.95-.4,10.13-.61,15.48-.61,31.13,0,56.88,7.2,61.12,16.54Zm88.51-89.56a71,71,0,0,1,13-7.55c3.06-1.36,9.48-3.95,22.07-5.82a155.29,155.29,0,0,1,32.71-1.34q.09,39.68.19,79.36a250.8,250.8,0,0,0-32.9,1.21c-10.36,1.07-16.06,2.33-22.07,5a57.6,57.6,0,0,0-13,7.94Zm83.71,13.22v76.34H151.39c4.24-9.34,30-16.54,61.12-16.54,5.35,0,10.53.21,15.48.61V117.32h8.12Z" transform="translate(-16.41 -16.91)"/></g><g id="Слой_6" data-name="Слой 6"><path class="cls-2" d="M220.36,183.27a250.8,250.8,0,0,0-32.9,1.21c-10.36,1.07-16.06,2.33-22.07,5a57.6,57.6,0,0,0-13,7.94V118.62a71,71,0,0,1,13-7.55c3.06-1.36,9.48-3.95,22.07-5.82a155.29,155.29,0,0,1,32.71-1.34Q220.26,143.59,220.36,183.27Z" transform="translate(-16.41 -16.91)"/><path class="cls-2" d="M134.62,111.07a71,71,0,0,1,13,7.55V197.4a57.6,57.6,0,0,0-13-7.94c-6-2.65-11.71-3.91-22.07-5a250.88,250.88,0,0,0-32.91-1.21q.1-39.68.2-79.36a155.29,155.29,0,0,1,32.71,1.34C125.14,107.12,131.56,109.71,134.62,111.07Z" transform="translate(-16.41 -16.91)"/><path class="cls-3" d="M63.89,208.18h84.72c-4.24-9.34-30-16.54-61.12-16.54-5.35,0-10.53.21-15.48.61V117.32H63.89v90.86Z" transform="translate(-16.41 -16.91)"/><path class="cls-3" d="M236.11,208.18H151.39c4.24-9.34,30-16.54,61.12-16.54,5.35,0,10.53.21,15.48.61V117.32h8.12v90.86Z" transform="translate(-16.41 -16.91)"/></g></svg>