<svg id="Слой_1" data-name="Слой 1" xmlns="http://www.w3.org/2000/svg" xmlns:xlink="http://www.w3.org/1999/xlink" viewBox="0 0 267.42 267.42"><defs><style>.cls-1,.cls-2,.cls-3{stroke:#000;stroke-miterlimit:10;stroke-width:0.25px;}.cls-1{fill:url(#Безымянный_градиент_2);}.cls-2{fill:url(#Безымянный_градиент_9);}.cls-3{fill:url(#Безымянный_градиент_9-2);}</style><linearGradient id="Безымянный_градиент_2" x1="56.88" y1="183.25" x2="186.17" y2="126.35" gradientUnits="userSpaceOnUse"><stop offset="0" stop-color="#ffe12a"/><stop offset="1" stop-color="#ffba00"/></linearGradient><linearGradient id="Безымянный_градиент_9" x1="21.51" y1="123.62" x2="150.8" y2="66.71" xlink:href="#Безымянный_градиент_2"/><linearGradient id="Безымянный_градиент_9-2" x1="16.41" y1="150" x2="283.59" y2="150" xlink:href="#Безымянный_градиент_2"/></defs><title>pers-mon</title><path class="cls-1" d="M149.72,26.92C114.5,26.92,86,55.87,86,91.54a65.25,65.25,0,0,0,4.25,23.36q27.54,75.33,55.07,150.74c20.52-48.58,63.13-149.17,63.8-150.74a63.6,63.6,0,0,0,4.33-23.36C213.45,55.87,184.87,26.92,149.72,26.92Zm0,105.69a41,41,0,1,1,41-41A41,41,0,0,1,149.72,132.61Z" transform="translate(-16.29 -16.29)"/><circle class="cls-2" cx="133.41" cy="74.37" r="19.5"/><g id="Слой_4" data-name="Слой 4"><path class="cls-3" d="M150,16.41A133.59,133.59,0,1,0,283.59,150,133.59,133.59,0,0,0,150,16.41Zm64.52,99.51c-.73,1.7-47,111-69.3,163.73Q115.31,197.71,85.4,115.92a70.89,70.89,0,0,1-4.62-25.37c0-38.75,31-70.2,69.22-70.2s69.22,31.45,69.22,70.2A69.24,69.24,0,0,1,214.52,115.92Z" transform="translate(-16.29 -16.29)"/></g></svg>